# xmcd
#
# Track frame offsets: 
#        150
#        12508
#        31433
#        48683
#        64271
#        79999
#        96209
#        111708
#        131413
#        147692
#
# Disc length: 2171 seconds
#
# Revision: 0
# Processed by: cddbd v1.5.1PL2 Copyright (c) Steve Scherf et al.
# Submitted via: ExactAudioCopy v0.95a3
#
DISCID=9b08790a
DTITLE=Various Artist - Country Laser Hits Vol 17
DYEAR=1900
DGENRE=Country
TTITLE0=Toby Keith - I'm Just Talkin' About Tonight
TTITLE1=Lonestar - I'm Already There
TTITLE2=Blake Shelton - Austin
TTITLE3=Phil Vassar - Six Pack Summer
TTITLE4=Trick Pony - On A Night Like This
TTITLE5=Carolyn Dawn Johnson - Complicated
TTITLE6=Rascal Flatts - While You Loved Me
TTITLE7=SHeDAISY - Still Holding Out For You
TTITLE8=Tammy Cochran - Angels In Waiting
TTITLE9=Diamond Rio - Sweet Summer
EXTD=
EXTT0=
EXTT1=
EXTT2=
EXTT3=
EXTT4=
EXTT5=
EXTT6=
EXTT7=
EXTT8=
EXTT9=
PLAYORDER=
